<?xml version="1.0" encoding="utf-8"?>
<!-- Generator: Adobe Illustrator 24.1.2, SVG Export Plug-In . SVG Version: 6.00 Build 0)  -->
<svg version="1.1" id="Layer_1" xmlns="http://www.w3.org/2000/svg" xmlns:xlink="http://www.w3.org/1999/xlink" x="0px" y="0px"
	 viewBox="0 0 48 48" style="enable-background:new 0 0 48 48;" xml:space="preserve">
<style type="text/css">
	.st0{fill:#1976D2;}
	.st1{fill:#FFFFFF;}
	.st2{fill:#FFFFFF;stroke:#1976D2;stroke-width:2;}
	.st3{stroke:#1976D2;stroke-width:4;stroke-linecap:round;}
</style>
<path class="st0" d="M8,0h32c4.4,0,8,3.6,8,8v32c0,4.4-3.6,8-8,8H8c-4.4,0-8-3.6-8-8V8C0,3.6,3.6,0,8,0z"/>
<path id="Lines" class="st1" d="M8.3,44.5h31.5v-3.1H8.3V44.5z M8.3,31.9h31.5v-3.1H8.3V31.9z M8.3,19.3h31.5v-3.1H8.3V19.3z
	 M8.3,6.7h31.5V3.5H8.3V6.7z"/>
<circle id="Circle" class="st2" cx="24" cy="24" r="12"/>
<path id="Cross" class="st3" d="M24,17.4v13.2 M17.4,24h13.2"/>
</svg>
